#!OML:ASF F:\VICON\USERDATA\INSTALL\rory3\rory3.ASF
:FULLY-SPECIFIED
:DEGREES
503
root -0.904941 17.2594 -1.63232 6.77935 1.70656 2.2445
lowerback 4.55245 1.2718 -4.59885
upperback 2.17756 1.50524 -0.150128
thorax -0.423306 0.724842 2.34974
lowerneck -22.3225 1.67532 -9.91803
upperneck 32.2049 7.67964 -3.00103
head 14.7968 1.58072 1.88227
rclavicle -2.62147e-015 -8.44835e-016
rhumerus -31.569 9.62293 -87.4184
rradius 62.2484
rwrist 13.1131
rhand -26.8279 8.55467
rfingers 7.12502
rthumb -0.253843 -21.4249
lclavicle -2.62147e-015 -8.44835e-016
lhumerus -26.4718 -5.92009 84.5512
lradius 74.5225
lwrist 9.99989
lhand -14.8564 16.0941
lfingers 7.12502
lthumb 11.3033 45.7695
rfemur -26.4487 -0.0142657 17.6431
rtibia 50.7988
rfoot -21.8419 3.89748
rtoes 1.25923
lfemur -18.928 1.32065 -25.1169
ltibia 39.2925
lfoot -22.0593 -4.78271
ltoes -7.33895
504
root -0.90522 17.2376 -1.63631 6.75682 1.78629 2.28686
lowerback 4.73031 1.20378 -4.68383
upperback 2.18464 1.40117 -0.199675
thorax -0.507972 0.674294 2.3484
lowerneck -22.2352 1.76208 -9.84419
upperneck 32.1957 7.7522 -2.97414
head 14.7693 1.62731 1.89215
rclavicle -7.29291e-015 9.34288e-015
rhumerus -31.7052 9.74996 -87.6023
rradius 62.5607
rwrist 12.696
rhand -26.9044 8.64321
rfingers 7.12502
rthumb -0.327792 -21.3363
lclavicle -7.29291e-015 9.34288e-015
lhumerus -26.4164 -5.46712 84.4551
lradius 75.3025
lwrist 10.5134
lhand -14.7156 16.4459
lfingers 7.12502
lthumb 11.4391 46.1138
rfemur -27.1104 -0.274458 17.6086
rtibia 52.0635
rfoot -21.412 4.00737
rtoes 1.05984
lfemur -19.2334 1.6414 -25.1544
ltibia 39.8598
lfoot -22.1704 -5.22539
ltoes -6.97943
505
root -0.908753 17.2162 -1.64322 6.65284 1.94031 2.2108
lowerback 5.05442 1.11979 -4.71019
upperback 2.20192 1.27072 -0.191813
thorax -0.661665 0.612081 2.37289
lowerneck -22.2435 1.81349 -9.79142
upperneck 32.2852 7.79613 -2.91774
head 14.8071 1.65406 1.91605
rclavicle -1.29955e-014 6.4605e-016
rhumerus -31.8902 9.91335 -87.7451
rradius 62.9005
rwrist 12.2211
rhand -27.0535 8.77033
rfingers 7.12502
rthumb -0.471723 -21.2089
lclavicle -1.29955e-014 6.4605e-016
lhumerus -26.412 -4.94236 84.3944
lradius 76.1512
lwrist 11.0074
lhand -14.5397 16.6124
lfingers 7.12502
lthumb 11.6087 46.2709
rfemur -27.7434 -0.578204 17.7366
rtibia 53.38
rfoot -20.8107 4.0534
rtoes 0.887289
lfemur -19.4937 1.70824 -25.0406
ltibia 40.4638
lfoot -22.2352 -5.4533
ltoes -6.76202
506
root -0.910352 17.189 -1.65085 6.5785 2.01506 2.16896
lowerback 5.35785 1.08071 -4.74421
upperback 2.21762 1.20053 -0.184908
thorax -0.80995 0.579856 2.39837
lowerneck -22.3019 1.81503 -9.8244
upperneck 32.3544 7.81016 -2.87108
head 14.8468 1.65625 1.94543
rclavicle -8.68441e-015 1.06101e-014
rhumerus -31.9843 9.92272 -87.8275
rradius 63.1443
rwrist 11.8829
rhand -27.1626 8.87393
rfingers 7.12502
rthumb -0.577149 -21.105
lclavicle -8.68441e-015 1.06101e-014
lhumerus -26.2898 -4.46117 84.3862
lradius 76.7844
lwrist 11.3986
lhand -14.5139 16.5206
lfingers 7.12502
lthumb 11.6335 46.1777
rfemur -28.4899 -0.971703 17.7954
rtibia 54.7707
rfoot -20.0658 4.26012
rtoes 0.527263
lfemur -19.7742 1.77795 -24.9878
ltibia 41.0546
lfoot -22.3921 -5.58566
ltoes -7.08279
507
root -0.911936 17.1641 -1.65656 6.4998 2.03202 2.02649
lowerback 5.60133 1.03152 -4.71617
upperback 2.27186 1.12523 -0.117383
thorax -0.884665 0.542896 2.45382
lowerneck -22.3963 1.83093 -9.90105
upperneck 32.3546 7.86068 -2.82824
head 14.8603 1.67154 1.98661
rclavicle -2.31646e-014 -1.14301e-015
rhumerus -32.1081 10.0049 -87.8751
rradius 63.5334
rwrist 11.4832
rhand -27.0823 8.888
rfingers 7.12502
rthumb -0.499579 -21.0912
lclavicle -2.31646e-014 -1.14301e-015
lhumerus -26.11 -3.77877 84.4382
lradius 77.328
lwrist 11.5783
lhand -14.4775 16.6422
lfingers 7.12502
lthumb 11.6687 46.2973
rfemur -29.2733 -1.20269 17.9321
rtibia 56.237
rfoot -19.2101 4.46475
rtoes 0.440446
lfemur -20.0224 1.90948 -24.8259
ltibia 41.5838
lfoot -22.5952 -5.71061
ltoes -7.06978
508
root -0.912091 17.1422 -1.6606 6.47194 2.04817 2.04281
lowerback 5.73373 0.969565 -4.81275
upperback 2.34106 1.03227 -0.119472
thorax -0.881083 0.494833 2.51072
lowerneck -22.4926 1.85381 -9.87555
upperneck 32.3957 7.88188 -2.77656
head 14.896 1.68539 2.01032
rclavicle 9.2e-015 9.37705e-015
rhumerus -32.3169 9.98358 -87.9762
rradius 64.049
rwrist 11.0946
rhand -26.981 9.09127
rfingers 7.12502
rthumb -0.40175 -20.8881
lclavicle 9.2e-015 9.37705e-015
lhumerus -25.9014 -3.06867 84.45
lradius 77.8287
lwrist 11.7226
lhand -14.3936 16.7231
lfingers 7.12502
lthumb 11.7496 46.3735
rfemur -30.192 -1.49342 17.8604
rtibia 57.7797
rfoot -18.2148 4.67587
rtoes 0.863974
lfemur -20.2696 1.93908 -24.8471
ltibia 42.0206
lfoot -22.762 -5.79871
ltoes -6.79039
509
root -0.913722 17.1166 -1.66359 6.43675 2.09091 2.16161
lowerback 5.91429 0.922043 -5.01887
upperback 2.36517 0.947888 -0.139856
thorax -0.952297 0.453142 2.6089
lowerneck -22.3914 1.82422 -9.92685
upperneck 32.3306 7.76595 -2.59528
head 14.8316 1.66415 2.0682
rclavicle -1.54431e-014 1.13432e-014
rhumerus -32.7434 9.93984 -88.0587
rradius 64.749
rwrist 10.5996
rhand -26.9539 9.19651
rfingers 7.12502
rthumb -0.375606 -20.7829
lclavicle -1.54431e-014 1.13432e-014
lhumerus -25.8033 -2.5062 84.5034
lradius 78.3255
lwrist 11.8149
lhand -14.5168 16.6213
lfingers 7.12502
lthumb 11.6308 46.2785
rfemur -31.1522 -1.84496 17.6745
rtibia 59.3653
rfoot -17.2206 4.81833
rtoes 1.48104
lfemur -20.4738 1.96579 -24.9668
ltibia 42.354
lfoot -23.0221 -5.95022
ltoes -6.38961
510
root -0.913935 17.0916 -1.66177 6.33675 2.10796 2.08909
lowerback 6.0369 0.882466 -4.97089
upperback 2.42049 0.892319 -0.145811
thorax -0.958146 0.42479 2.57864
lowerneck -22.3051 1.77044 -9.82682
upperneck 32.3058 7.61815 -2.56595
head 14.8075 1.62159 2.03465
rclavicle -6.52262e-017 -8.3738e-015
rhumerus -33.0382 9.78063 -88.1745
rradius 65.2192
rwrist 10.1865
rhand -27.2108 9.31077
rfingers 7.12502
rthumb -0.623676 -20.6681
lclavicle -6.52262e-017 -8.3738e-015
lhumerus -25.6422 -1.97864 84.5105
lradius 78.7442
lwrist 11.9987
lhand -14.6085 16.9503
lfingers 7.12502
lthumb 11.5424 46.6125
rfemur -32.0211 -2.14988 17.6759
rtibia 60.9274
rfoot -16.0321 4.81846
rtoes 1.46385
lfemur -20.4951 1.97072 -24.8831
ltibia 42.6018
lfoot -23.2885 -6.03495
ltoes -5.96145
511
root -0.914493 17.0751 -1.65953 6.36081 2.09338 1.95705
lowerback 6.04433 0.861277 -4.87839
upperback 2.47132 0.870878 -0.112755
thorax -0.907448 0.412308 2.56264
lowerneck -22.3715 1.70392 -9.82841
upperneck 32.3273 7.49513 -2.4683
head 14.8298 1.58032 2.05453
rclavicle 1.7257e-014 8.44835e-016
rhumerus -33.353 9.7546 -88.2146
rradius 65.7362
rwrist 9.70594
rhand -27.4838 9.44786
rfingers 7.12502
rthumb -0.887387 -20.53
lclavicle 1.7257e-014 8.44835e-016
lhumerus -25.3968 -1.49685 84.6115
lradius 79.038
lwrist 12.267
lhand -14.685 16.9099
lfingers 7.12502
lthumb 11.4686 46.5762
rfemur -33.059 -2.44126 17.7703
rtibia 62.4529
rfoot -14.7059 4.52405
rtoes 0.604006
lfemur -20.6013 2.03654 -24.7462
ltibia 42.7779
lfoot -23.3343 -6.02238
ltoes -6.37471
